<?xml version="1.0" encoding="UTF-8" standalone="no"?>
<svg
		xmlns:dc="http://purl.org/dc/elements/1.1/"
		xmlns:cc="http://creativecommons.org/ns#"
		xmlns:rdf="http://www.w3.org/1999/02/22-rdf-syntax-ns#"
		xmlns:svg="http://www.w3.org/2000/svg"
		xmlns="http://www.w3.org/2000/svg"
		height="352.278"
		width="352.278"
		version="1.1">
<rect x="0" y="0" width="352.278" height="352.278" stroke-width="0.8" style="fill:gray;stroke:black;" /><circle cx="157.103" cy="181.325" r="36.6745" stroke="black" stroke-width="0.8" fill="red" />
<circle cx="77.8192" cy="287.341" r="32.377" stroke="black" stroke-width="0.8" fill="red" />
<circle cx="112.002" cy="205.2" r="2.2737" stroke="black" stroke-width="0.8" fill="red" />
<circle cx="289.849" cy="338.955" r="13.323" stroke="black" stroke-width="0.8" fill="red" />
<circle cx="103.096" cy="331.114" r="18.0743" stroke="black" stroke-width="0.8" fill="red" />
<circle cx="337.666" cy="257.644" r="14.6122" stroke="black" stroke-width="0.8" fill="red" />
<circle cx="244.75" cy="314.114" r="38.1643" stroke="black" stroke-width="0.8" fill="red" />
<circle cx="45.1261" cy="309.294" r="7.003" stroke="black" stroke-width="0.8" fill="red" />
<circle cx="36.7108" cy="36.7108" r="36.7108" stroke="black" stroke-width="0.8" fill="red" />
<circle cx="95.1103" cy="220.381" r="19.8125" stroke="black" stroke-width="0.8" fill="red" />
<circle cx="213.985" cy="248.103" r="34.664" stroke="black" stroke-width="0.8" fill="red" />
<circle cx="132.987" cy="339.696" r="12.5822" stroke="black" stroke-width="0.8" fill="red" />
<circle cx="23.9783" cy="167.01" r="23.9783" stroke="black" stroke-width="0.8" fill="red" />
<circle cx="276.195" cy="202.799" r="3.98442" stroke="black" stroke-width="0.8" fill="red" />
<circle cx="200.348" cy="118.524" r="39.575" stroke="black" stroke-width="0.8" fill="red" />
<circle cx="198.887" cy="204.725" r="11.0217" stroke="black" stroke-width="0.8" fill="red" />
<circle cx="278.566" cy="239.561" r="12.4734" stroke="black" stroke-width="0.8" fill="red" />
<circle cx="259.402" cy="29.8402" r="29.8402" stroke="black" stroke-width="0.8" fill="red" />
<circle cx="266.893" cy="160.455" r="39.0775" stroke="black" stroke-width="0.8" fill="red" />
<circle cx="317.113" cy="213.568" r="34.0181" stroke="black" stroke-width="0.8" fill="red" />
<circle cx="318.521" cy="109.079" r="33.757" stroke="black" stroke-width="0.8" fill="red" />
<circle cx="258.638" cy="216.748" r="17.8161" stroke="black" stroke-width="0.8" fill="red" />
<circle cx="332.021" cy="161.379" r="20.257" stroke="black" stroke-width="0.8" fill="red" />
<circle cx="11.7086" cy="208.059" r="11.7086" stroke="black" stroke-width="0.8" fill="red" />
<circle cx="54.9768" cy="333.317" r="18.961" stroke="black" stroke-width="0.8" fill="red" />
<circle cx="30.0398" cy="113.333" r="30.0398" stroke="black" stroke-width="0.8" fill="red" />
<circle cx="95.3801" cy="172.61" r="25.6576" stroke="black" stroke-width="0.8" fill="red" />
<circle cx="173.882" cy="319.379" r="32.899" stroke="black" stroke-width="0.8" fill="red" />
<circle cx="190.494" cy="39.7809" r="39.7809" stroke="black" stroke-width="0.8" fill="red" />
<circle cx="56.4786" cy="197.083" r="20.3012" stroke="black" stroke-width="0.8" fill="red" />
<circle cx="318.005" cy="28.7726" r="28.7726" stroke="black" stroke-width="0.8" fill="red" />
<circle cx="18.8133" cy="335.053" r="17.2247" stroke="black" stroke-width="0.8" fill="red" />
<circle cx="65.5972" cy="226.27" r="10.2763" stroke="black" stroke-width="0.8" fill="red" />
<circle cx="122.892" cy="211.925" r="9.2252" stroke="black" stroke-width="0.8" fill="red" />
<circle cx="71.9143" cy="83.3895" r="21.4374" stroke="black" stroke-width="0.8" fill="red" />
<circle cx="338.536" cy="66.0022" r="13.7425" stroke="black" stroke-width="0.8" fill="red" />
<circle cx="348.927" cy="272.757" r="3.35142" stroke="black" stroke-width="0.8" fill="red" />
<circle cx="30.3274" cy="246.394" r="30.3274" stroke="black" stroke-width="0.8" fill="red" />
<circle cx="122.628" cy="114.824" r="38.2278" stroke="black" stroke-width="0.8" fill="red" />
<circle cx="80.0348" cy="341.582" r="7.12775" stroke="black" stroke-width="0.8" fill="red" />
<circle cx="227.966" cy="75.3117" r="8.60185" stroke="black" stroke-width="0.8" fill="red" />
<circle cx="141.29" cy="255.91" r="38.4493" stroke="black" stroke-width="0.8" fill="red" />
<circle cx="229.564" cy="200.354" r="15.5601" stroke="black" stroke-width="0.8" fill="red" />
<circle cx="20.6444" cy="296.438" r="20.6444" stroke="black" stroke-width="0.8" fill="red" />
<circle cx="210.26" cy="174.184" r="16.9596" stroke="black" stroke-width="0.8" fill="red" />
<circle cx="112.059" cy="38.6624" r="38.6624" stroke="black" stroke-width="0.8" fill="red" />
<circle cx="176.979" cy="223.382" r="9.83967" stroke="black" stroke-width="0.8" fill="red" />
<circle cx="318.689" cy="301.953" r="33.5887" stroke="black" stroke-width="0.8" fill="red" />
<circle cx="259.44" cy="243.512" r="5.8196" stroke="black" stroke-width="0.8" fill="red" />
<circle cx="271.047" cy="267.347" r="14.2733" stroke="black" stroke-width="0.8" fill="red" />
</svg>
